<?xml version="1.0" standalone="no"?>
<!DOCTYPE svg PUBLIC "-//W3C//DTD SVG 20010904//EN"
 "http://www.w3.org/TR/2001/REC-SVG-20010904/DTD/svg10.dtd">
<svg version="1.0" xmlns="http://www.w3.org/2000/svg"
 width="500.000000pt" height="500.000000pt" viewBox="0 0 500.000000 500.000000"
 preserveAspectRatio="xMidYMid meet">
<metadata>
Created by potrace 1.11, written by Peter Selinger 2001-2013
</metadata>
<g transform="translate(0.000000,500.000000) scale(0.100000,-0.100000)"
fill="#000000" stroke="none">
<path d="M1530 4182 c0 -4 -23 -8 -50 -9 -28 -2 -59 -7 -69 -12 -10 -6 -34
-11 -52 -12 -19 -2 -38 -5 -43 -7 -5 -3 -22 -6 -38 -7 -15 -2 -45 -11 -65 -21
-21 -10 -45 -19 -53 -20 -8 -2 -16 -8 -18 -13 -2 -6 -9 -11 -16 -11 -7 0 -26
-6 -42 -14 -16 -8 -60 -28 -99 -45 -38 -17 -82 -38 -97 -46 -14 -8 -33 -15
-42 -15 -9 0 -19 -7 -22 -15 -4 -8 -10 -13 -15 -10 -4 3 -18 0 -31 -7 -26 -15
-52 -38 -43 -38 3 0 0 -10 -7 -22 -7 -13 -11 -26 -10 -30 1 -5 -2 -8 -6 -8 -5
0 -9 -6 -9 -12 0 -7 -8 -30 -17 -50 -9 -21 -14 -38 -10 -38 3 0 -2 -7 -10 -16
-9 -8 -16 -22 -16 -30 0 -9 -5 -25 -12 -37 -7 -12 -13 -28 -14 -35 -1 -8 -11
-23 -21 -34 -10 -11 -17 -22 -15 -24 7 -11 0 -34 -14 -48 -8 -9 -12 -20 -9
-26 3 -5 1 -10 -5 -10 -6 0 -8 -5 -5 -10 3 -6 -1 -17 -9 -26 -9 -9 -14 -20
-11 -25 4 -5 2 -9 -3 -9 -5 0 -9 -6 -9 -12 0 -7 -11 -35 -23 -63 -13 -27 -25
-53 -26 -57 -1 -5 -3 -11 -4 -15 -1 -5 -2 -11 -1 -15 0 -5 -4 -8 -9 -8 -5 0
-9 -3 -8 -7 3 -12 -25 -83 -32 -83 -4 0 -7 -6 -8 -12 -1 -22 -46 -133 -54
-136 -4 -2 -8 -12 -8 -22 0 -10 -5 -22 -10 -25 -6 -4 -8 -11 -5 -16 4 -5 1 -9
-5 -9 -6 0 -9 -4 -5 -9 3 -5 1 -12 -5 -16 -5 -3 -10 -13 -10 -21 0 -8 -19 -54
-42 -102 -23 -48 -43 -94 -44 -102 -6 -39 -16 -75 -25 -92 -7 -13 -6 -18 2
-18 9 0 9 -4 0 -14 -13 -15 -24 -59 -23 -88 0 -10 -3 -18 -8 -18 -5 0 -7 -9
-5 -20 2 -11 0 -22 -5 -25 -4 -3 -7 -16 -5 -30 1 -14 -1 -25 -5 -25 -6 0 -10
-16 -11 -52 0 -10 -4 -18 -9 -18 -5 0 -7 -11 -4 -25 2 -14 0 -25 -5 -25 -5 0
-8 -8 -6 -17 1 -10 0 -22 -4 -28 -3 -5 -6 -17 -7 -25 0 -8 -4 -23 -8 -32 -5
-10 -6 -25 -2 -33 3 -8 1 -15 -5 -15 -6 0 -9 -7 -5 -15 3 -8 1 -15 -5 -15 -6
0 -7 -5 -4 -10 4 -6 1 -17 -5 -25 -10 -12 -10 -15 1 -15 10 0 10 -3 3 -8 -11
-7 -30 -87 -26 -106 2 -4 -2 -14 -8 -21 -15 -18 -15 -135 0 -135 4 0 6 -18 5
-40 -1 -22 1 -40 4 -40 6 0 9 -31 14 -137 1 -24 5 -43 8 -43 3 0 5 -19 4 -42
0 -24 2 -45 6 -48 4 -3 9 -33 11 -68 1 -34 6 -62 10 -62 4 0 5 -9 3 -20 -2
-11 0 -20 5 -20 4 0 24 -15 42 -32 82 -77 118 -109 118 -103 0 3 17 -11 39
-32 38 -37 99 -92 174 -154 20 -17 37 -39 37 -48 0 -14 2 -14 10 -1 5 8 13 15
17 16 20 2 62 28 57 36 -3 5 -2 8 3 7 19 -3 31 2 59 26 15 13 30 23 32 21 3
-4 57 51 97 102 15 17 24 32 22 32 -3 0 7 13 21 29 56 62 72 80 72 86 0 4 6
13 12 20 7 8 24 28 38 45 14 18 32 40 40 49 8 10 20 25 25 33 31 47 73 97 78
92 3 -3 8 4 12 16 4 11 16 30 28 40 11 11 17 20 13 20 -4 0 3 11 16 24 13 13
32 36 43 50 11 15 26 33 33 41 6 7 12 18 12 24 0 5 10 17 22 25 12 9 18 16 13
16 -5 0 1 9 13 20 12 11 24 20 26 20 3 0 29 15 58 34 29 18 56 34 61 34 4 1
17 11 29 21 11 11 25 18 30 15 4 -3 8 0 8 6 0 6 5 8 10 5 6 -3 10 -2 10 3 0 6
357 10 957 10 l957 0 56 -36 c30 -19 61 -35 68 -35 6 0 12 -4 12 -9 0 -5 10
-13 23 -18 44 -20 82 -48 80 -59 -2 -6 4 -11 13 -11 8 0 12 -5 9 -10 -3 -5 -1
-10 4 -10 6 0 11 -5 11 -10 0 -6 10 -21 23 -33 12 -12 33 -38 47 -57 13 -19
28 -39 32 -45 5 -5 17 -21 28 -34 11 -13 17 -28 13 -34 -3 -5 -2 -8 3 -5 5 2
19 -6 31 -19 12 -13 19 -23 16 -23 -4 0 8 -15 25 -33 18 -18 29 -36 26 -40 -4
-4 -3 -7 3 -7 6 0 37 -35 69 -78 32 -42 66 -84 76 -93 10 -9 15 -19 12 -22 -3
-3 3 -12 15 -19 12 -7 21 -19 21 -26 0 -7 5 -10 10 -7 6 3 10 2 10 -4 0 -18
45 -78 72 -97 15 -10 24 -22 22 -26 -3 -4 2 -8 10 -8 9 0 16 -4 16 -10 0 -5 7
-10 15 -10 8 0 15 -4 15 -10 0 -5 7 -10 15 -10 8 0 15 -5 15 -12 0 -6 3 -9 6
-5 3 3 15 -3 27 -13 11 -11 24 -17 29 -14 4 3 8 0 8 -5 0 -22 38 -10 73 22 33
30 61 54 176 154 24 21 56 50 72 65 15 14 30 23 33 20 3 -3 6 3 6 13 0 10 3
16 6 12 3 -3 16 5 29 18 12 14 24 23 26 21 2 -3 14 11 27 30 12 19 17 34 12
34 -7 0 -8 6 0 19 5 11 10 39 10 64 0 24 3 47 7 51 7 7 13 63 15 144 1 23 5
42 10 42 5 0 7 18 4 39 -2 22 -1 42 2 46 4 4 8 23 10 43 5 65 6 72 15 72 5 0
7 6 4 14 -3 8 -1 17 6 20 9 3 9 5 0 5 -7 1 -13 12 -13 25 0 14 -5 28 -10 31
-6 4 -8 15 -5 26 4 10 3 19 -2 19 -4 0 -9 10 -9 23 -1 12 -5 36 -9 52 -3 17
-7 38 -8 48 -1 9 -6 17 -11 17 -5 0 -6 3 -3 7 4 3 2 12 -4 20 -9 10 -8 13 0
13 7 0 9 5 4 13 -4 6 -9 23 -11 36 -2 14 -8 33 -13 43 -5 10 -7 23 -4 28 3 6
0 10 -7 10 -9 0 -9 3 2 10 10 6 11 10 3 10 -7 0 -13 10 -13 23 0 12 -4 29 -10
37 -5 9 -5 19 1 26 6 8 5 14 -6 17 -8 4 -12 13 -9 22 4 8 0 23 -7 32 -12 14
-12 16 0 8 11 -6 12 -5 5 6 -5 8 -9 17 -10 22 -1 4 -2 8 -4 10 -2 3 -9 42 -14
81 -2 16 -10 33 -18 37 -10 7 -10 9 0 9 10 0 10 6 -1 28 -7 15 -12 37 -11 50
0 12 -2 22 -7 22 -4 0 -6 9 -4 20 2 12 -2 23 -11 27 -8 3 -13 12 -10 19 3 8 2
14 -3 14 -9 0 -33 46 -38 75 -2 10 -7 22 -11 25 -7 5 -14 27 -15 48 0 6 -4 12
-9 12 -4 0 -8 4 -8 9 0 5 -5 22 -12 38 -6 15 -11 31 -10 36 1 4 -2 7 -8 7 -5
0 -10 7 -10 15 0 8 -4 23 -9 33 -16 29 -36 87 -33 95 1 4 -3 7 -9 7 -5 0 -7 5
-4 10 3 6 1 10 -5 10 -6 0 -8 5 -5 10 3 6 3 10 -2 10 -8 0 -33 62 -35 88 -1 6
-5 12 -10 12 -4 0 -7 3 -6 8 2 8 -16 51 -39 95 -8 15 -11 32 -8 37 3 6 3 10
-2 10 -4 0 -13 11 -20 25 -8 19 -8 23 0 18 7 -3 4 3 -6 14 -9 11 -14 23 -10
26 3 4 1 7 -5 7 -7 0 -12 6 -12 13 0 7 -9 32 -20 55 -25 51 -42 93 -46 109 -1
7 -9 27 -18 44 -9 18 -16 38 -16 46 0 7 -5 13 -12 13 -6 0 -8 3 -5 7 4 3 2 12
-4 20 -6 7 -8 13 -5 13 4 0 0 10 -8 22 -9 12 -16 30 -16 40 0 11 -5 15 -15 12
-8 -4 -15 -1 -15 6 0 6 -4 8 -10 5 -5 -3 -10 -1 -10 4 0 6 -9 11 -20 11 -11 0
-20 4 -20 9 0 5 -13 11 -29 14 -16 3 -35 12 -43 19 -14 13 -33 20 -55 21 -7 0
-13 4 -13 9 0 4 -9 8 -20 8 -11 0 -20 3 -20 8 0 4 -11 12 -25 19 -19 8 -23 8
-18 0 3 -7 -2 -5 -13 5 -15 13 -80 46 -104 53 -3 0 -27 11 -53 23 -26 13 -52
20 -57 17 -6 -3 -10 0 -10 7 0 10 -2 10 -9 -1 -6 -9 -11 -10 -15 -2 -4 6 -11
9 -16 6 -5 -3 -11 -2 -14 3 -3 5 -19 7 -35 6 -17 -1 -31 1 -31 4 0 4 -21 8
-47 10 -26 2 -50 7 -53 12 -3 5 -19 7 -35 4 -37 -6 -186 -54 -200 -64 -8 -6
-43 -16 -75 -23 -3 0 -10 -6 -17 -12 -7 -8 -47 -13 -107 -13 -52 0 -100 -3
-106 -7 -5 -3 -10 -3 -10 2 0 9 -842 8 -866 -1 -8 -3 -14 -2 -14 2 0 4 -43 6
-96 4 -52 -2 -101 1 -107 5 -7 5 -32 16 -57 23 -25 7 -49 16 -55 20 -5 4 -30
13 -55 20 -25 7 -50 17 -56 22 -6 4 -23 9 -38 10 -14 1 -26 5 -26 8 0 3 -9 6
-20 7 -11 1 -20 -1 -20 -5z"/>
</g>
</svg>
